<svg xmlns="http://www.w3.org/2000/svg" viewBox="0 0 543.83 238.42"><defs><style>.cls-1{fill:#8aa7bc;}.cls-1,.cls-2,.cls-4{stroke:#4c73a4;stroke-miterlimit:10;}.cls-1,.cls-2,.cls-3,.cls-4{stroke-width:3px;}.cls-2{fill:#717ba4;}.cls-3,.cls-4{fill:#fff;}.cls-3{stroke:#cecdce;stroke-linejoin:round;}.cls-5{font-size:16px;}.cls-5,.cls-6,.cls-7{fill:#201600;font-family:Roboto-Regular, Roboto;}.cls-6{font-size:23px;}.cls-7{font-size:17px;}.cls-8{letter-spacing:-0.01em;}.cls-9{letter-spacing:-0.02em;}</style></defs><title>Монтажная область 1</title><g id="Слой_2" data-name="Слой 2"><circle class="cls-1" cx="431.47" cy="76.54" r="34.71"/><circle class="cls-1" cx="336.08" cy="170.13" r="34.71"/><circle class="cls-2" cx="111.63" cy="116.47" r="34.71"/><polygon class="cls-3" points="90.92 122.92 58.11 136.4 75.11 141.2 82.57 157.56 90.92 122.92"/><rect class="cls-4" x="111.63" y="45.35" width="217.23" height="48.41" rx="11.11"/><line class="cls-4" x1="111.63" y1="68.4" x2="328.86" y2="68.4"/><line class="cls-4" x1="152" y1="45.35" x2="152" y2="93.76"/><line class="cls-4" x1="240.32" y1="45.35" x2="240.32" y2="93.76"/><text class="cls-5" transform="translate(125.26 62.53)">id</text><text class="cls-5" transform="translate(158.96 61.53)">name</text><text class="cls-5" transform="translate(245.96 61.58)">date</text><text class="cls-6" transform="translate(105.19 122.92)">3</text><text class="cls-6" transform="translate(328.86 176.48)">2</text><text class="cls-6" transform="translate(423.93 83.77)">1</text><text class="cls-7" transform="translate(127.15 86.38)">3</text><text class="cls-7" transform="translate(158.17 86.38)"><tspan class="cls-8">r</tspan><tspan x="5.59" y="0">egist</tspan><tspan class="cls-9" x="42.58" y="0">r</tspan><tspan x="48" y="0">at...</tspan></text><text class="cls-7" transform="translate(245.77 86.87)">01.01.2...</text></g></svg>