<svg xmlns="http://www.w3.org/2000/svg" viewBox="0 0 836.43 517.79"><defs><style>.cls-1,.cls-13,.cls-22,.cls-5{fill:#fff;}.cls-2{fill:#324557;stroke:#42586d;opacity:0.66;}.cls-2,.cls-5{stroke-miterlimit:10;}.cls-3{fill:#78a3bb;}.cls-4{fill:#21232b;}.cls-13,.cls-5{font-size:19px;}.cls-5{stroke:#fff;stroke-width:0.5px;}.cls-13,.cls-22,.cls-5{font-family:MyriadPro-Regular, Myriad Pro;}.cls-6{letter-spacing:-0.01em;}.cls-7{letter-spacing:0em;}.cls-8{letter-spacing:0em;}.cls-9{letter-spacing:0em;}.cls-10{letter-spacing:0em;}.cls-11{letter-spacing:-0.01em;}.cls-12{letter-spacing:0em;}.cls-14{letter-spacing:-0.01em;}.cls-15{letter-spacing:-0.01em;}.cls-16{letter-spacing:0.02em;}.cls-17{letter-spacing:0em;}.cls-18{letter-spacing:-0.01em;}.cls-19{letter-spacing:0em;}.cls-20{letter-spacing:0em;}.cls-21{letter-spacing:0em;}.cls-22{opacity:0.71;font-size:12px;}.cls-23{letter-spacing:0em;}.cls-24{letter-spacing:0.01em;}.cls-25{fill:none;}.cls-25,.cls-26{stroke:#6aaaab;stroke-linecap:round;stroke-linejoin:round;stroke-width:3px;}.cls-26{fill:#6aaaab;}</style></defs><title>Монтажная область 1</title><g id="Слой_1" data-name="Слой 1"><circle class="cls-1" cx="64" cy="153.53" r="4.09"/></g><g id="Слой_2" data-name="Слой 2"><rect class="cls-2" x="593.76" y="74.95" width="183.83" height="116.93" rx="9.57"/><rect class="cls-3" x="603.38" y="108.74" width="167.15" height="22.47" rx="2.62"/><circle class="cls-1" cx="601.93" cy="119.97" r="4.09"/><circle class="cls-4" cx="601.93" cy="119.97" r="3.21"/><circle class="cls-1" cx="770.53" cy="119.97" r="4.09"/><circle class="cls-4" cx="770.53" cy="119.97" r="3.21"/><rect class="cls-3" x="603.1" y="135.85" width="167.15" height="22.47" rx="2.62"/><circle class="cls-1" cx="601.65" cy="147.08" r="4.09"/><circle class="cls-4" cx="601.65" cy="147.08" r="3.21"/><circle class="cls-1" cx="770.25" cy="147.08" r="4.09"/><circle class="cls-4" cx="770.25" cy="147.08" r="3.21"/><rect class="cls-3" x="603.1" y="163.85" width="167.15" height="22.47" rx="2.62"/><circle class="cls-1" cx="601.65" cy="175.08" r="4.09"/><circle class="cls-4" cx="601.65" cy="175.08" r="3.21"/><circle class="cls-1" cx="770.25" cy="175.08" r="4.09"/><circle class="cls-4" cx="770.25" cy="175.08" r="3.21"/><text class="cls-5" transform="translate(652.59 99.57) scale(1.08 1)"><tspan class="cls-6">C</tspan><tspan x="10.81" y="0">ourses</tspan></text><rect class="cls-2" x="452.7" y="333.43" width="183.83" height="146.27" rx="9.57"/><rect class="cls-3" x="462.32" y="367.22" width="167.15" height="22.47" rx="2.62"/><circle class="cls-1" cx="460.87" cy="378.45" r="4.09"/><circle class="cls-4" cx="460.87" cy="378.45" r="3.21"/><circle class="cls-1" cx="629.47" cy="378.45" r="4.09"/><circle class="cls-4" cx="629.47" cy="378.45" r="3.21"/><rect class="cls-3" x="462.04" y="394.33" width="167.15" height="22.47" rx="2.62"/><circle class="cls-1" cx="460.6" cy="405.56" r="4.09"/><circle class="cls-4" cx="460.6" cy="405.56" r="3.21"/><circle class="cls-1" cx="629.19" cy="405.56" r="4.09"/><circle class="cls-4" cx="629.19" cy="405.56" r="3.21"/><rect class="cls-3" x="462.04" y="422.33" width="167.15" height="22.47" rx="2.62"/><circle class="cls-1" cx="460.6" cy="433.56" r="4.09"/><circle class="cls-4" cx="460.6" cy="433.56" r="3.21"/><circle class="cls-1" cx="629.19" cy="433.56" r="4.09"/><circle class="cls-4" cx="629.19" cy="433.56" r="3.21"/><rect class="cls-3" x="462.04" y="450.33" width="167.15" height="22.47" rx="2.62"/><circle class="cls-1" cx="460.6" cy="461.56" r="4.09"/><circle class="cls-4" cx="460.6" cy="461.56" r="3.21"/><circle class="cls-1" cx="629.19" cy="461.56" r="4.09"/><circle class="cls-4" cx="629.19" cy="461.56" r="3.21"/><text class="cls-5" transform="translate(508.02 360.15) scale(1.08 1)"><tspan class="cls-7">S</tspan><tspan class="cls-8" x="9.31" y="0">tude</tspan><tspan class="cls-9" x="46.3" y="0">n</tspan><tspan x="56.77" y="0">ts</tspan></text><rect class="cls-2" x="54.89" y="108.51" width="183.83" height="146.27" rx="9.57"/><rect class="cls-3" x="64.51" y="142.3" width="167.15" height="22.47" rx="2.62"/><circle class="cls-1" cx="63.06" cy="153.53" r="4.09"/><circle class="cls-4" cx="63.06" cy="153.53" r="3.21"/><circle class="cls-1" cx="231.66" cy="153.53" r="4.09"/><circle class="cls-4" cx="231.66" cy="153.53" r="3.21"/><rect class="cls-3" x="64.23" y="169.41" width="167.15" height="22.47" rx="2.62"/><circle class="cls-1" cx="62.79" cy="180.64" r="4.09"/><circle class="cls-4" cx="62.79" cy="180.64" r="3.21"/><circle class="cls-1" cx="231.38" cy="180.64" r="4.09"/><circle class="cls-4" cx="231.38" cy="180.64" r="3.21"/><rect class="cls-3" x="64.23" y="197.41" width="167.15" height="22.47" rx="2.62"/><circle class="cls-1" cx="62.79" cy="208.64" r="4.09"/><circle class="cls-4" cx="62.79" cy="208.64" r="3.21"/><circle class="cls-1" cx="231.38" cy="208.64" r="4.09"/><circle class="cls-4" cx="231.38" cy="208.64" r="3.21"/><rect class="cls-3" x="64.23" y="225.41" width="167.15" height="22.47" rx="2.62"/><circle class="cls-1" cx="62.79" cy="236.64" r="4.09"/><circle class="cls-4" cx="62.79" cy="236.64" r="3.21"/><circle class="cls-1" cx="231.38" cy="236.64" r="4.09"/><circle class="cls-4" cx="231.38" cy="236.64" r="3.21"/><text class="cls-5" transform="translate(99.02 133.41) scale(1.08 1)"><tspan class="cls-10">R</tspan><tspan x="10.3" y="0">e</tspan><tspan class="cls-11" x="19.82" y="0">g</tspan><tspan x="30.32" y="0">ist</tspan><tspan class="cls-12" x="48.58" y="0">r</tspan><tspan class="cls-9" x="54.7" y="0">a</tspan><tspan class="cls-8" x="63.78" y="0">tion</tspan></text><text class="cls-13" transform="translate(611.3 126)">id</text><text class="cls-13" transform="translate(610.3 152.53)"><tspan class="cls-14">c</tspan><tspan x="8.4" y="0">ourse_name</tspan></text><text class="cls-13" transform="translate(610.3 180.53)"><tspan class="cls-14">c</tspan><tspan x="8.4" y="0">ourse_des</tspan><tspan class="cls-15" x="89.81" y="0">c</tspan><tspan x="98.13" y="0">...</tspan></text><text class="cls-13" transform="translate(469.62 384.66)">id</text><text class="cls-13" transform="translate(469.62 410.66)">first_name</text><text class="cls-13" transform="translate(469.62 438.66)">last_name</text><text class="cls-13" transform="translate(469.62 466.66)">bi<tspan class="cls-16" x="15.26" y="0">r</tspan><tspan x="21.92" y="0">th_d</tspan><tspan class="cls-17" x="58.97" y="0">a</tspan><tspan class="cls-18" x="68.06" y="0">t</tspan><tspan class="cls-19" x="74.23" y="0">e</tspan></text><text class="cls-13" transform="translate(73.65 160.32)">id</text><text class="cls-13" transform="translate(73.65 186.32)">stude<tspan class="cls-17" x="44.52" y="0">n</tspan><tspan x="54.99" y="0">t_id</tspan></text><text class="cls-13" transform="translate(73.65 214.32)"><tspan class="cls-14">c</tspan><tspan x="8.4" y="0">ourse_id</tspan></text><text class="cls-13" transform="translate(73.65 242.32)"><tspan class="cls-15">r</tspan><tspan x="6.02" y="0">e</tspan><tspan class="cls-18" x="15.54" y="0">g</tspan><tspan class="cls-20" x="26.05" y="0">ist</tspan><tspan class="cls-21" x="44.31" y="0">r</tspan><tspan class="cls-17" x="50.43" y="0">a</tspan><tspan class="cls-20" x="59.51" y="0">tion_...</tspan></text><text class="cls-22" transform="translate(193.79 157.64)">INT<tspan class="cls-23" x="16.73" y="0">E</tspan><tspan x="22.58" y="0">...</tspan></text><text class="cls-22" transform="translate(193.79 184.64)">INT<tspan class="cls-23" x="16.73" y="0">E</tspan><tspan x="22.58" y="0">...</tspan></text><text class="cls-22" transform="translate(193.79 211.64)">INT<tspan class="cls-23" x="16.73" y="0">E</tspan><tspan x="22.58" y="0">...</tspan></text><text class="cls-22" transform="translate(193.79 240.64)">TE<tspan class="cls-24" x="11.87" y="0">X</tspan><tspan x="18.82" y="0">T</tspan></text><text class="cls-22" transform="translate(733.72 178.3)">TE<tspan class="cls-24" x="11.87" y="0">X</tspan><tspan x="18.82" y="0">T</tspan></text><text class="cls-22" transform="translate(733.72 150.3)">TE<tspan class="cls-24" x="11.87" y="0">X</tspan><tspan x="18.82" y="0">T</tspan></text><text class="cls-22" transform="translate(592.76 409.78)">TE<tspan class="cls-24" x="11.87" y="0">X</tspan><tspan x="18.82" y="0">T</tspan></text><text class="cls-22" transform="translate(592.76 436.78)">TE<tspan class="cls-24" x="11.87" y="0">X</tspan><tspan x="18.82" y="0">T</tspan></text><text class="cls-22" transform="translate(592.76 465.78)">TE<tspan class="cls-24" x="11.87" y="0">X</tspan><tspan x="18.82" y="0">T</tspan></text><text class="cls-22" transform="translate(592.76 381.66)">INT<tspan class="cls-23" x="16.73" y="0">E</tspan><tspan x="22.58" y="0">...</tspan></text><text class="cls-22" transform="translate(733.72 124)">INT<tspan class="cls-23" x="16.73" y="0">E</tspan><tspan x="22.58" y="0">...</tspan></text><path class="cls-25" d="M236.94,208.34c66.17,14,110.08,3,138.38-10.21,44.06-20.61,56.05-49.42,102.64-68.94,44.21-18.52,84.16-15.44,114.8-9.7"/><path class="cls-25" d="M236.68,181.28c13.66-8.8,23.89-9.28,29.87-8.68,61.34,6.08,63.14,163.9,156.26,199.14,14,5.3,21.74,6.43,28.47,6.73"/><polygon class="cls-26" points="451.28 379 444.46 373.11 442.56 380.79 451.28 379"/><polygon class="cls-26" points="592.96 119.74 585.97 114.03 584.29 121.77 592.96 119.74"/></g></svg>