<svg xmlns="http://www.w3.org/2000/svg" viewBox="0 0 655.52 355.34"><defs><style>.cls-1{fill:#fff;}.cls-1,.cls-2{stroke:#4c73a4;}.cls-1,.cls-2,.cls-4,.cls-7,.cls-8{stroke-miterlimit:10;}.cls-1,.cls-2,.cls-3{stroke-width:3px;}.cls-2{fill:#8aa7bc;}.cls-3{fill:none;stroke:#aeadae;stroke-linecap:round;stroke-linejoin:round;}.cls-4,.cls-7{font-size:25.57px;fill:#845689;stroke:#845689;}.cls-4,.cls-8{stroke-width:0.75px;}.cls-4,.cls-7,.cls-8{font-family:Roboto-Regular, Roboto;}.cls-5{letter-spacing:-0.01em;}.cls-6{letter-spacing:-0.02em;}.cls-8{font-size:25px;fill:#201600;stroke:#201600;}.cls-9{letter-spacing:-0.01em;}.cls-10{letter-spacing:-0.02em;}.cls-11{letter-spacing:0em;}.cls-12{letter-spacing:-0.06em;}</style></defs><title>Монтажная область 1</title><g id="Слой_2" data-name="Слой 2"><rect class="cls-1" x="53.48" y="41.36" width="99.57" height="57.5" rx="9.19"/><rect class="cls-1" x="53.48" y="115.36" width="114.55" height="57.5" rx="9.19"/><rect class="cls-1" x="53.48" y="188.36" width="114.55" height="57.5" rx="9.19"/><rect class="cls-1" x="53.48" y="41.36" width="99.57" height="57.5" rx="9.19"/><rect class="cls-1" x="170.88" y="41.36" width="57.5" height="57.5" rx="9.19"/><rect class="cls-1" x="245.44" y="41.36" width="89.06" height="57.5" rx="9.19"/><rect class="cls-1" x="350.35" y="41.36" width="193.17" height="57.5" rx="9.19"/><rect class="cls-1" x="351.35" y="114.36" width="193.17" height="57.5" rx="9.19"/><rect class="cls-1" x="558.5" y="41.36" width="57.5" height="57.5" rx="9.19"/><rect class="cls-1" x="561.48" y="114.68" width="57.5" height="57.5" rx="9.19"/><rect class="cls-1" x="184.8" y="116.11" width="152.43" height="57.5" rx="9.19"/><rect class="cls-1" x="53.48" y="262.71" width="207.53" height="57.5" rx="9.19"/><rect class="cls-1" x="184.8" y="188.36" width="57.5" height="57.5" rx="9.19"/><rect class="cls-1" x="481.31" y="188.86" width="57.5" height="57.5" rx="9.19"/><rect class="cls-1" x="257.35" y="188.86" width="208.21" height="57.5" rx="9.19"/><rect class="cls-2" x="277.21" y="262.71" width="57.5" height="57.5" rx="9.19"/><polyline class="cls-3" points="523.63 69.32 528.9 74.59 533.93 69.57"/><polyline class="cls-3" points="523.63 141.79 528.9 147.07 533.93 142.05"/><text class="cls-4" transform="translate(58.91 80.06)">SELE<tspan class="cls-5" x="58" y="0">C</tspan><tspan class="cls-6" x="74.29" y="0">T</tspan></text><text class="cls-4" transform="translate(255.91 80.06)">FROM</text><text class="cls-4" transform="translate(571.91 80.06)">AS</text><text class="cls-4" transform="translate(574.91 152.06)">AS</text><text class="cls-4" transform="translate(502.91 226.06)">=</text><text class="cls-7" transform="translate(193.71 83.06)">*</text><text class="cls-4" transform="translate(194.91 226.06)">ON</text><text class="cls-4" transform="translate(299.65 298.69)">+</text><text class="cls-8" transform="translate(375.95 77.17)">students</text><text class="cls-8" transform="translate(375.95 150.17)"><tspan class="cls-9">r</tspan><tspan x="8.23" y="0">egist</tspan><tspan class="cls-10" x="62.62" y="0">r</tspan><tspan class="cls-11" x="70.59" y="0">ation</tspan></text><text class="cls-4" transform="translate(192.63 154.39)">INNER JOIN</text><text class="cls-8" transform="translate(103.69 150.06)">s</text><text class="cls-8" transform="translate(103.27 222.83)">r</text><text class="cls-8" transform="translate(295.71 225.83)"><tspan class="cls-12">r</tspan><tspan x="6.96" y="0">.student_id</tspan></text><text class="cls-8" transform="translate(133.45 299.99)">s.id</text></g></svg>